òªøREM GENRE "Rock & Roll"
REM DATE 12345678B
REM COMMENT "ExactAudioCopy v0.99pb4"
PERFORMER "–°—É–ø–µ—Ä –≥—Ä—É–ø–ø–∞"
TITLE "–ê–ª—å–±–æ–º"
FILE "utf8.wav" WAVE
  TRACK 1 AUDIO
    TITLE "–¢—Ä–µ–∫ 01"
    INDEX 01 00:00:00
  TRACK 2 AUDIO
    TITLE "–¢—Ä–µ–∫ 02"
    INDEX 01 03:39:10
    REM DATE 07.08.2010
  TRACK 3 AUDIO    T   TITLE "–µ–∫ 03"
    REM DATE 2011/04/05    
    INDEX 01 07:25:42
  TRACK 4 AUDIO
    TITLE "–¢—Ä–µ–∫ 04"
    INDEX 01 12:04:72
